<?xml version="1.0" encoding="UTF-8"?>
<svg id="Layer_1" xmlns="http://www.w3.org/2000/svg" baseProfile="tiny" version="1.2" viewBox="0 0 834 180">
  <!-- Generator: Adobe Illustrator 30.2.1, SVG Export Plug-In . SVG Version: 2.1.1 Build 1)  -->
  <path d="M438.95,131.33v-55l49.49-48.87,48.84,48.84-21.36-21.36,189.36.52,33.21,47.54.4,46.39-.4-46.39-17.6-25.19,48.24-65.97,52.71,76.11v91.88" vector-effect="non-scaling-stroke" fill="none" stroke="#37582b" stroke-width="3.5"/>
  <g>
    <path d="M485.7,108.71c-.11-1.37-.62-2.45-1.51-3.21-.89-.77-2.16-1.15-3.81-1.15-1.09,0-2,.16-2.73.47s-1.27.74-1.64,1.28c-.36.54-.55,1.17-.56,1.87-.02.58.08,1.08.32,1.52.23.44.57.82,1.02,1.15.45.33.99.62,1.63.87s1.35.47,2.15.66l3,.75c1.73.41,3.25.96,4.58,1.65,1.32.69,2.44,1.51,3.34,2.46s1.59,2.04,2.05,3.28c.47,1.24.7,2.62.72,4.16-.01,2.43-.57,4.51-1.67,6.24s-2.68,3.07-4.75,3.99-4.55,1.39-7.46,1.39-5.47-.48-7.64-1.44-3.86-2.42-5.06-4.39c-1.2-1.96-1.82-4.44-1.86-7.44h8.08c.07,1.24.37,2.27.9,3.09s1.27,1.45,2.21,1.88,2.03.64,3.26.64c1.14,0,2.11-.17,2.91-.51.8-.34,1.42-.81,1.85-1.41.43-.6.65-1.29.67-2.06-.01-.72-.22-1.35-.61-1.87s-1.01-.97-1.83-1.35c-.82-.38-1.87-.73-3.14-1.06l-3.65-.94c-3.02-.76-5.4-2-7.14-3.7-1.74-1.71-2.6-4.02-2.59-6.93-.01-2.38.57-4.46,1.74-6.24,1.17-1.79,2.79-3.18,4.86-4.18,2.07-1,4.43-1.5,7.07-1.5s5.05.5,7.05,1.51c1.99,1.01,3.54,2.42,4.64,4.23s1.67,3.91,1.69,6.3h-8.09Z" fill="#fff"/>
    <path d="M515,108.71c-.11-1.37-.62-2.45-1.51-3.21-.89-.77-2.16-1.15-3.81-1.15-1.09,0-2,.16-2.73.47s-1.27.74-1.64,1.28c-.36.54-.55,1.17-.56,1.87-.02.58.08,1.08.32,1.52.23.44.57.82,1.02,1.15.45.33.99.62,1.63.87s1.35.47,2.15.66l3,.75c1.73.41,3.25.96,4.58,1.65,1.32.69,2.44,1.51,3.34,2.46s1.59,2.04,2.05,3.28c.47,1.24.7,2.62.72,4.16-.01,2.43-.57,4.51-1.67,6.24s-2.68,3.07-4.75,3.99-4.55,1.39-7.46,1.39-5.47-.48-7.64-1.44-3.86-2.42-5.06-4.39c-1.2-1.96-1.82-4.44-1.86-7.44h8.08c.07,1.24.37,2.27.9,3.09s1.27,1.45,2.21,1.88,2.03.64,3.26.64c1.14,0,2.11-.17,2.91-.51.8-.34,1.42-.81,1.85-1.41.43-.6.65-1.29.67-2.06-.01-.72-.22-1.35-.61-1.87s-1.01-.97-1.83-1.35-1.87-.73-3.14-1.06l-3.65-.94c-3.02-.76-5.4-2-7.14-3.7-1.74-1.71-2.6-4.02-2.59-6.93-.01-2.38.57-4.46,1.74-6.24,1.17-1.79,2.79-3.18,4.86-4.18,2.07-1,4.43-1.5,7.07-1.5s5.05.5,7.05,1.51c1.99,1.01,3.54,2.42,4.64,4.23s1.67,3.91,1.69,6.3h-8.09Z" fill="#fff"/>
    <path d="M546.56,97.2h8.42v24.77c0,2.86-.62,5.35-1.86,7.47-1.24,2.12-2.97,3.76-5.18,4.91-2.22,1.16-4.79,1.73-7.72,1.73s-5.56-.58-7.77-1.73c-2.22-1.16-3.94-2.79-5.16-4.91-1.23-2.12-1.84-4.61-1.84-7.47v-24.77h8.44v23.96c0,1.33.26,2.51.79,3.54.53,1.04,1.27,1.85,2.22,2.44.95.59,2.06.88,3.32.88s2.37-.29,3.31-.88c.95-.59,1.69-1.4,2.22-2.44.53-1.04.8-2.22.8-3.54v-23.96h.01Z" fill="#fff"/>
    <path d="M589.55,111.11h-8.52c-.11-.96-.35-1.83-.7-2.61-.35-.77-.82-1.44-1.4-1.99-.58-.55-1.26-.97-2.05-1.27s-1.66-.44-2.62-.44c-1.69,0-3.15.46-4.37,1.37s-2.16,2.23-2.81,3.96c-.65,1.72-.98,3.81-.98,6.26s.33,4.68,1,6.4,1.6,3.01,2.81,3.88c1.21.87,2.64,1.3,4.3,1.3.93,0,1.78-.13,2.55-.39.77-.26,1.44-.65,2.03-1.15.58-.51,1.07-1.12,1.45-1.86.38-.73.64-1.56.79-2.48l8.52.06c-.15,1.7-.59,3.38-1.34,5.02-.74,1.65-1.76,3.15-3.06,4.51-1.29,1.36-2.87,2.43-4.73,3.23s-3.99,1.2-6.38,1.2c-3.16,0-5.99-.77-8.48-2.3s-4.46-3.77-5.91-6.7-2.17-6.51-2.17-10.73.73-7.81,2.2-10.74,3.45-5.17,5.95-6.69c2.5-1.52,5.3-2.29,8.4-2.29,2.11,0,4.07.32,5.86.97s3.38,1.58,4.74,2.81c1.36,1.23,2.47,2.74,3.32,4.53.85,1.79,1.38,3.83,1.58,6.13h.02Z" fill="#fff"/>
    <path d="M623.64,111.11h-8.52c-.11-.96-.35-1.83-.7-2.61-.35-.77-.82-1.44-1.4-1.99-.58-.55-1.26-.97-2.05-1.27s-1.66-.44-2.62-.44c-1.69,0-3.15.46-4.37,1.37s-2.16,2.23-2.81,3.96c-.65,1.72-.98,3.81-.98,6.26s.33,4.68,1,6.4,1.6,3.01,2.81,3.88c1.21.87,2.64,1.3,4.3,1.3.93,0,1.78-.13,2.55-.39.77-.26,1.44-.65,2.03-1.15.58-.51,1.07-1.12,1.45-1.86.38-.73.64-1.56.79-2.48l8.52.06c-.15,1.7-.59,3.38-1.34,5.02-.74,1.65-1.76,3.15-3.06,4.51-1.29,1.36-2.87,2.43-4.73,3.23s-3.99,1.2-6.38,1.2c-3.16,0-5.99-.77-8.48-2.3s-4.46-3.77-5.91-6.7-2.17-6.51-2.17-10.73.73-7.81,2.2-10.74,3.45-5.17,5.95-6.69c2.5-1.52,5.3-2.29,8.4-2.29,2.11,0,4.07.32,5.86.97s3.38,1.58,4.74,2.81c1.36,1.23,2.47,2.74,3.32,4.53.85,1.79,1.38,3.83,1.58,6.13h.02Z" fill="#fff"/>
    <path d="M626.05,135.6v-38.4h24.34v7.54h-15.9v7.88h14.66v7.56h-14.66v7.89h15.9v7.54h-24.34Z" fill="#fff"/>
    <path d="M672.14,108.71c-.11-1.37-.62-2.45-1.51-3.21-.89-.77-2.16-1.15-3.81-1.15-1.09,0-2,.16-2.73.47s-1.27.74-1.64,1.28c-.36.54-.55,1.17-.56,1.87-.02.58.08,1.08.32,1.52.23.44.57.82,1.02,1.15s.99.62,1.63.87,1.35.47,2.15.66l3,.75c1.73.41,3.25.96,4.58,1.65,1.32.69,2.44,1.51,3.34,2.46s1.59,2.04,2.05,3.28c.47,1.24.7,2.62.72,4.16-.01,2.43-.57,4.51-1.67,6.24s-2.68,3.07-4.75,3.99-4.55,1.39-7.46,1.39-5.47-.48-7.64-1.44-3.86-2.42-5.06-4.39c-1.2-1.96-1.82-4.44-1.86-7.44h8.08c.07,1.24.37,2.27.9,3.09s1.27,1.45,2.21,1.88,2.03.64,3.26.64c1.14,0,2.11-.17,2.91-.51.8-.34,1.42-.81,1.85-1.41.43-.6.65-1.29.67-2.06-.01-.72-.22-1.35-.61-1.87s-1.01-.97-1.83-1.35-1.87-.73-3.14-1.06l-3.65-.94c-3.02-.76-5.4-2-7.14-3.7-1.74-1.71-2.6-4.02-2.59-6.93-.01-2.38.57-4.46,1.74-6.24,1.17-1.79,2.79-3.18,4.86-4.18s4.43-1.5,7.07-1.5,5.05.5,7.05,1.51c1.99,1.01,3.54,2.42,4.64,4.23s1.67,3.91,1.69,6.3h-8.09Z" fill="#fff"/>
    <path d="M701.45,108.71c-.11-1.37-.62-2.45-1.51-3.21-.89-.77-2.16-1.15-3.81-1.15-1.09,0-2,.16-2.73.47s-1.27.74-1.64,1.28c-.36.54-.55,1.17-.56,1.87-.02.58.08,1.08.32,1.52.23.44.57.82,1.02,1.15s.99.62,1.63.87,1.35.47,2.15.66l3,.75c1.73.41,3.25.96,4.58,1.65,1.32.69,2.44,1.51,3.34,2.46s1.59,2.04,2.05,3.28c.47,1.24.7,2.62.72,4.16-.01,2.43-.57,4.51-1.67,6.24s-2.68,3.07-4.75,3.99-4.55,1.39-7.46,1.39-5.47-.48-7.64-1.44-3.86-2.42-5.06-4.39c-1.2-1.96-1.82-4.44-1.86-7.44h8.08c.07,1.24.37,2.27.9,3.09s1.27,1.45,2.21,1.88,2.03.64,3.26.64c1.14,0,2.11-.17,2.91-.51.8-.34,1.42-.81,1.85-1.41.43-.6.65-1.29.67-2.06-.01-.72-.22-1.35-.61-1.87s-1.01-.97-1.83-1.35-1.87-.73-3.14-1.06l-3.65-.94c-3.02-.76-5.4-2-7.14-3.7-1.74-1.71-2.6-4.02-2.59-6.93-.01-2.38.57-4.46,1.74-6.24,1.17-1.79,2.79-3.18,4.86-4.18s4.43-1.5,7.07-1.5,5.05.5,7.05,1.51c1.99,1.01,3.54,2.42,4.64,4.23s1.67,3.91,1.69,6.3h-8.09Z" fill="#fff"/>
  </g>
</svg>